<mxfile host="app.diagrams.net" modified="2023-11-15T18:24:47.153Z" agent="Mozilla/5.0 (Windows NT 10.0; Win64; x64) AppleWebKit/537.36 (KHTML, like Gecko) Chrome/116.0.5845.837 YaBrowser/23.9.4.837 Yowser/2.5 Safari/537.36" etag="2240WK1NCHJ4Go31Jdr7" version="22.1.1" type="device">
  <diagram name="Страница — 1" id="vnSpo1r4NmJ5xjZnADGt">
    <mxGraphModel dx="1035" dy="479" grid="1" gridSize="10" guides="1" tooltips="1" connect="1" arrows="1" fold="1" page="1" pageScale="1" pageWidth="827" pageHeight="1169" math="0" shadow="0">
      <root>
        <mxCell id="0" />
        <mxCell id="1" parent="0" />
        <mxCell id="DfPbUzmvSyFBGVOM1EA9-3" value="" style="strokeWidth=2;html=1;shape=mxgraph.flowchart.start_2;whiteSpace=wrap;" vertex="1" parent="1">
          <mxGeometry x="40" y="110" width="100" height="100" as="geometry" />
        </mxCell>
        <mxCell id="DfPbUzmvSyFBGVOM1EA9-6" value="предоставление информации об оказываемых услугах" style="html=1;whiteSpace=wrap;" vertex="1" parent="1">
          <mxGeometry x="180" y="127.5" width="110" height="65" as="geometry" />
        </mxCell>
        <mxCell id="DfPbUzmvSyFBGVOM1EA9-7" value="" style="endArrow=classic;html=1;rounded=0;entryX=0;entryY=0.5;entryDx=0;entryDy=0;exitX=1;exitY=0.5;exitDx=0;exitDy=0;exitPerimeter=0;" edge="1" parent="1" source="DfPbUzmvSyFBGVOM1EA9-3" target="DfPbUzmvSyFBGVOM1EA9-6">
          <mxGeometry width="50" height="50" relative="1" as="geometry">
            <mxPoint x="30" y="330" as="sourcePoint" />
            <mxPoint x="80" y="280" as="targetPoint" />
          </mxGeometry>
        </mxCell>
        <mxCell id="DfPbUzmvSyFBGVOM1EA9-11" value="" style="endArrow=none;html=1;rounded=0;" edge="1" parent="1">
          <mxGeometry width="50" height="50" relative="1" as="geometry">
            <mxPoint x="330" y="190" as="sourcePoint" />
            <mxPoint x="330" y="130" as="targetPoint" />
          </mxGeometry>
        </mxCell>
        <mxCell id="DfPbUzmvSyFBGVOM1EA9-12" value="" style="endArrow=classic;html=1;rounded=0;exitX=1;exitY=0.5;exitDx=0;exitDy=0;" edge="1" parent="1" source="DfPbUzmvSyFBGVOM1EA9-6">
          <mxGeometry width="50" height="50" relative="1" as="geometry">
            <mxPoint x="360" y="220" as="sourcePoint" />
            <mxPoint x="330" y="160" as="targetPoint" />
          </mxGeometry>
        </mxCell>
        <mxCell id="DfPbUzmvSyFBGVOM1EA9-13" value="заключение договора" style="html=1;whiteSpace=wrap;" vertex="1" parent="1">
          <mxGeometry x="360" y="100" width="110" height="50" as="geometry" />
        </mxCell>
        <mxCell id="DfPbUzmvSyFBGVOM1EA9-14" value="" style="endArrow=classic;html=1;rounded=0;entryX=0;entryY=0.75;entryDx=0;entryDy=0;" edge="1" parent="1" target="DfPbUzmvSyFBGVOM1EA9-13">
          <mxGeometry width="50" height="50" relative="1" as="geometry">
            <mxPoint x="330" y="138" as="sourcePoint" />
            <mxPoint x="410" y="170" as="targetPoint" />
          </mxGeometry>
        </mxCell>
        <mxCell id="DfPbUzmvSyFBGVOM1EA9-15" value="составление плана работ" style="html=1;whiteSpace=wrap;" vertex="1" parent="1">
          <mxGeometry x="360" y="170" width="110" height="50" as="geometry" />
        </mxCell>
        <mxCell id="DfPbUzmvSyFBGVOM1EA9-16" value="" style="endArrow=classic;html=1;rounded=0;entryX=0;entryY=0.25;entryDx=0;entryDy=0;" edge="1" parent="1" target="DfPbUzmvSyFBGVOM1EA9-15">
          <mxGeometry width="50" height="50" relative="1" as="geometry">
            <mxPoint x="330" y="183" as="sourcePoint" />
            <mxPoint x="410" y="170" as="targetPoint" />
          </mxGeometry>
        </mxCell>
        <mxCell id="DfPbUzmvSyFBGVOM1EA9-17" value="выполнение услуг" style="html=1;whiteSpace=wrap;" vertex="1" parent="1">
          <mxGeometry x="500" y="135" width="110" height="50" as="geometry" />
        </mxCell>
        <mxCell id="DfPbUzmvSyFBGVOM1EA9-18" value="" style="endArrow=classic;html=1;rounded=0;exitX=1;exitY=0.5;exitDx=0;exitDy=0;entryX=0;entryY=0.25;entryDx=0;entryDy=0;" edge="1" parent="1" source="DfPbUzmvSyFBGVOM1EA9-13" target="DfPbUzmvSyFBGVOM1EA9-17">
          <mxGeometry width="50" height="50" relative="1" as="geometry">
            <mxPoint x="360" y="220" as="sourcePoint" />
            <mxPoint x="410" y="170" as="targetPoint" />
          </mxGeometry>
        </mxCell>
        <mxCell id="DfPbUzmvSyFBGVOM1EA9-19" value="" style="endArrow=classic;html=1;rounded=0;entryX=0;entryY=0.75;entryDx=0;entryDy=0;exitX=1;exitY=0.5;exitDx=0;exitDy=0;" edge="1" parent="1" source="DfPbUzmvSyFBGVOM1EA9-15" target="DfPbUzmvSyFBGVOM1EA9-17">
          <mxGeometry width="50" height="50" relative="1" as="geometry">
            <mxPoint x="360" y="220" as="sourcePoint" />
            <mxPoint x="410" y="170" as="targetPoint" />
          </mxGeometry>
        </mxCell>
        <mxCell id="DfPbUzmvSyFBGVOM1EA9-20" value="" style="endArrow=none;html=1;rounded=0;" edge="1" parent="1">
          <mxGeometry width="50" height="50" relative="1" as="geometry">
            <mxPoint x="650" y="190" as="sourcePoint" />
            <mxPoint x="650" y="130" as="targetPoint" />
          </mxGeometry>
        </mxCell>
        <mxCell id="DfPbUzmvSyFBGVOM1EA9-21" value="" style="endArrow=classic;html=1;rounded=0;exitX=1;exitY=0.5;exitDx=0;exitDy=0;" edge="1" parent="1" source="DfPbUzmvSyFBGVOM1EA9-17">
          <mxGeometry width="50" height="50" relative="1" as="geometry">
            <mxPoint x="490" y="190" as="sourcePoint" />
            <mxPoint x="650" y="160" as="targetPoint" />
          </mxGeometry>
        </mxCell>
        <mxCell id="DfPbUzmvSyFBGVOM1EA9-22" value="создание имиджа" style="html=1;whiteSpace=wrap;" vertex="1" parent="1">
          <mxGeometry x="680" y="100" width="110" height="50" as="geometry" />
        </mxCell>
        <mxCell id="DfPbUzmvSyFBGVOM1EA9-23" value="пиар" style="html=1;whiteSpace=wrap;" vertex="1" parent="1">
          <mxGeometry x="680" y="170" width="110" height="50" as="geometry" />
        </mxCell>
        <mxCell id="DfPbUzmvSyFBGVOM1EA9-24" value="" style="endArrow=classic;html=1;rounded=0;entryX=0;entryY=0.75;entryDx=0;entryDy=0;" edge="1" parent="1" target="DfPbUzmvSyFBGVOM1EA9-22">
          <mxGeometry width="50" height="50" relative="1" as="geometry">
            <mxPoint x="650" y="138" as="sourcePoint" />
            <mxPoint x="590" y="140" as="targetPoint" />
          </mxGeometry>
        </mxCell>
        <mxCell id="DfPbUzmvSyFBGVOM1EA9-25" value="" style="endArrow=classic;html=1;rounded=0;entryX=0;entryY=0.25;entryDx=0;entryDy=0;" edge="1" parent="1" target="DfPbUzmvSyFBGVOM1EA9-23">
          <mxGeometry width="50" height="50" relative="1" as="geometry">
            <mxPoint x="650" y="183" as="sourcePoint" />
            <mxPoint x="590" y="140" as="targetPoint" />
          </mxGeometry>
        </mxCell>
        <mxCell id="DfPbUzmvSyFBGVOM1EA9-26" value="" style="endArrow=none;html=1;rounded=0;" edge="1" parent="1">
          <mxGeometry width="50" height="50" relative="1" as="geometry">
            <mxPoint x="830" y="190" as="sourcePoint" />
            <mxPoint x="830" y="130" as="targetPoint" />
          </mxGeometry>
        </mxCell>
        <mxCell id="DfPbUzmvSyFBGVOM1EA9-27" value="" style="endArrow=classic;html=1;rounded=0;exitX=1;exitY=0.75;exitDx=0;exitDy=0;" edge="1" parent="1" source="DfPbUzmvSyFBGVOM1EA9-22">
          <mxGeometry width="50" height="50" relative="1" as="geometry">
            <mxPoint x="660" y="180" as="sourcePoint" />
            <mxPoint x="830" y="138" as="targetPoint" />
          </mxGeometry>
        </mxCell>
        <mxCell id="DfPbUzmvSyFBGVOM1EA9-28" value="" style="endArrow=classic;html=1;rounded=0;exitX=1;exitY=0.25;exitDx=0;exitDy=0;" edge="1" parent="1" source="DfPbUzmvSyFBGVOM1EA9-23">
          <mxGeometry width="50" height="50" relative="1" as="geometry">
            <mxPoint x="660" y="180" as="sourcePoint" />
            <mxPoint x="830" y="183" as="targetPoint" />
          </mxGeometry>
        </mxCell>
        <mxCell id="DfPbUzmvSyFBGVOM1EA9-29" value="чек об оплате операции" style="html=1;whiteSpace=wrap;" vertex="1" parent="1">
          <mxGeometry x="870" y="135" width="110" height="50" as="geometry" />
        </mxCell>
        <mxCell id="DfPbUzmvSyFBGVOM1EA9-30" value="" style="endArrow=classic;html=1;rounded=0;entryX=0;entryY=0.5;entryDx=0;entryDy=0;" edge="1" parent="1" target="DfPbUzmvSyFBGVOM1EA9-29">
          <mxGeometry width="50" height="50" relative="1" as="geometry">
            <mxPoint x="830" y="160" as="sourcePoint" />
            <mxPoint x="710" y="130" as="targetPoint" />
          </mxGeometry>
        </mxCell>
        <mxCell id="DfPbUzmvSyFBGVOM1EA9-31" value="" style="points=[[0.145,0.145,0],[0.5,0,0],[0.855,0.145,0],[1,0.5,0],[0.855,0.855,0],[0.5,1,0],[0.145,0.855,0],[0,0.5,0]];shape=mxgraph.bpmn.event;html=1;verticalLabelPosition=bottom;labelBackgroundColor=#ffffff;verticalAlign=top;align=center;perimeter=ellipsePerimeter;outlineConnect=0;aspect=fixed;outline=end;symbol=terminate2;" vertex="1" parent="1">
          <mxGeometry x="1010" y="135" width="50" height="50" as="geometry" />
        </mxCell>
        <mxCell id="DfPbUzmvSyFBGVOM1EA9-32" value="" style="endArrow=classic;html=1;rounded=0;entryX=0;entryY=0.5;entryDx=0;entryDy=0;entryPerimeter=0;" edge="1" parent="1" target="DfPbUzmvSyFBGVOM1EA9-31">
          <mxGeometry width="50" height="50" relative="1" as="geometry">
            <mxPoint x="980" y="160" as="sourcePoint" />
            <mxPoint x="710" y="130" as="targetPoint" />
          </mxGeometry>
        </mxCell>
      </root>
    </mxGraphModel>
  </diagram>
</mxfile>
